<svg width="162" height="165" viewBox="0 0 162 165" fill="none" xmlns="http://www.w3.org/2000/svg">
<mask id="mask0" mask-type="alpha" maskUnits="userSpaceOnUse" x="0" y="0" width="162" height="165">
<rect width="161.095" height="165" fill="#1A1A1A"/>
</mask>
<g mask="url(#mask0)">
<rect width="161" height="165" fill="#1A1A1A"/>
<path d="M-12.8651 116H5.89205L10.3452 89.0114H37.1989L39.7628 73.8977H12.9091L14.7983 62.0227H44.6207L47.1847 46.9091H-1.39489L-12.8651 116ZM42.8833 116H99.2896L101.854 100.886H69.1973L109.14 57.2997L110.895 46.9091H54.4885L51.9245 62.0227H84.5808L44.6376 105.609L42.8833 116ZM108.575 116H127.332L131.786 89.0114H158.639L161.203 73.8977H134.35L136.239 62.0227H166.061L168.625 46.9091H120.046L108.575 116Z" fill="#FCFCFC"/>
</g>
</svg>
